<?xml version="1.0" encoding="UTF-8"?>
<svg version="1.1" xmlns="http://www.w3.org/2000/svg" width="423" height="155">
<path d="M0 0 C1.34573593 -0.0049926 1.34573593 -0.0049926 2.71865845 -0.01008606 C4.62346891 -0.01515298 6.52828827 -0.01749446 8.43310547 -0.01733398 C11.30582018 -0.01949681 14.17813571 -0.03758863 17.05078125 -0.05664062 C34.03801231 -0.11060677 48.74871498 0.8527793 62.9765625 11.16796875 C63.9665625 11.82796875 64.9565625 12.48796875 65.9765625 13.16796875 C65.9765625 13.82796875 65.9765625 14.48796875 65.9765625 15.16796875 C66.6365625 15.16796875 67.2965625 15.16796875 67.9765625 15.16796875 C67.9765625 15.82796875 67.9765625 16.48796875 67.9765625 17.16796875 C68.6365625 17.16796875 69.2965625 17.16796875 69.9765625 17.16796875 C69.9765625 17.82796875 69.9765625 18.48796875 69.9765625 19.16796875 C70.6365625 19.16796875 71.2965625 19.16796875 71.9765625 19.16796875 C76.81735788 25.95674684 80.07238616 33.08254307 81.9765625 41.16796875 C82.15960938 41.78542969 82.34265625 42.40289062 82.53125 43.0390625 C85.50776226 57.26887991 80.75927669 69.92507517 73.9765625 82.16796875 C73.3165625 83.15796875 72.6565625 84.14796875 71.9765625 85.16796875 C71.3165625 85.16796875 70.6565625 85.16796875 69.9765625 85.16796875 C69.9765625 85.82796875 69.9765625 86.48796875 69.9765625 87.16796875 C69.3165625 87.16796875 68.6565625 87.16796875 67.9765625 87.16796875 C67.74066406 87.75578125 67.50476563 88.34359375 67.26171875 88.94921875 C63.10606692 96.12371795 52.72417439 100.40333827 45.05328369 102.75845337 C35.84465677 104.9174297 26.36021546 104.49658258 16.9609375 104.50390625 C15.01662093 104.51034201 13.07230531 104.51707094 11.12799072 104.52407837 C7.0700048 104.53600234 3.01210375 104.53976376 -1.04589844 104.53857422 C-6.23997101 104.53837021 -11.43350148 104.56577856 -16.62744522 104.60011864 C-20.63550311 104.62236185 -24.64342937 104.62641271 -28.65154266 104.62535477 C-30.56687047 104.62771051 -32.48220192 104.63653253 -34.39746857 104.6520195 C-37.07298488 104.67164656 -39.7473156 104.66585681 -42.42285156 104.65380859 C-43.20843445 104.66504761 -43.99401733 104.67628662 -44.80340576 104.68786621 C-49.98606895 104.62865243 -52.88347489 103.54539017 -57.0234375 100.16796875 C-59.41783368 97.12055543 -59.37619847 93.82795944 -59.28515625 90.07421875 C-58.92075859 87.42009846 -57.97633922 85.97064726 -56.0234375 84.16796875 C-55.3634375 84.16796875 -54.7034375 84.16796875 -54.0234375 84.16796875 C-54.0234375 83.50796875 -54.0234375 82.84796875 -54.0234375 82.16796875 C-50.0553307 80.86515359 -46.03646379 81.0158676 -41.90942383 81.01025391 C-41.09424286 81.00517319 -40.27906189 81.00009247 -39.43917847 80.99485779 C-37.67078024 80.98416893 -35.90236862 80.97554295 -34.13395119 80.96873856 C-31.32927593 80.95692088 -28.52475267 80.93745912 -25.72013855 80.9156189 C-17.74633896 80.85411015 -9.77255462 80.80004455 -1.79858398 80.76660156 C3.08207297 80.74558308 7.96245284 80.71022042 12.84295082 80.66584396 C14.69713377 80.65173847 16.55136573 80.64297391 18.40559959 80.63978958 C21.00921717 80.63484625 23.6121079 80.6116004 26.21557617 80.58447266 C27.34983284 80.58898186 27.34983284 80.58898186 28.50700378 80.59358215 C33.41627723 80.51813338 37.43261551 79.55721604 42.02284718 77.80957603 C43.9765625 77.16796875 43.9765625 77.16796875 46.9765625 77.16796875 C46.9765625 76.50796875 46.9765625 75.84796875 46.9765625 75.16796875 C48.1903988 74.10438888 49.44901288 73.0916065 50.7265625 72.10546875 C56.12052717 67.44791415 58.56459971 63.06977726 59.31640625 55.94921875 C59.50078097 49.51822849 58.94307882 44.8537917 55.9765625 39.16796875 C55.9765625 38.17796875 55.9765625 37.18796875 55.9765625 36.16796875 C55.3165625 36.16796875 54.6565625 36.16796875 53.9765625 36.16796875 C52.77793729 34.70298239 51.58080056 33.23672809 50.39453125 31.76171875 C46.28267683 27.14013031 40.72538765 24.44444969 34.58444214 23.99154663 C31.67067835 23.92366707 28.76218028 23.91793441 25.84765625 23.9296875 C23.65689479 23.91427627 21.46613945 23.89797327 19.27539062 23.88085938 C15.83653209 23.86437254 12.39812356 23.85550141 8.95922852 23.86254883 C5.62985629 23.86516458 2.30184659 23.83708941 -1.02734375 23.8046875 C-2.05453018 23.81489426 -3.08171661 23.82510101 -4.14002991 23.83561707 C-11.30528569 23.73731686 -11.30528569 23.73731686 -15.14819336 20.69067383 C-15.76702393 19.85818115 -16.38585449 19.02568848 -17.0234375 18.16796875 C-17.3534375 17.83796875 -17.6834375 17.50796875 -18.0234375 17.16796875 C-19.24480082 7.95363284 -19.24480082 7.95363284 -16.7890625 4.36328125 C-11.52952598 -0.03702406 -6.52026765 0.0084133 0 0 Z " fill="#0C0C0C" transform="translate(66.0234375,44.83203125)"/>
<path d="M0 0 C1.41125908 -0.00788544 1.41125908 -0.00788544 2.85102844 -0.01593018 C5.93764202 -0.02905446 9.02373343 -0.02042179 12.11035156 -0.01025391 C14.26410012 -0.01227614 16.41784802 -0.01518882 18.57159424 -0.01895142 C23.07367506 -0.02336392 27.57557678 -0.01697567 32.07763672 -0.00292969 C37.85032188 0.01420267 43.62258982 0.00428848 49.39525986 -0.01364708 C53.83731237 -0.02447874 58.27926563 -0.0210421 62.72132111 -0.0132637 C64.85040588 -0.01126212 66.97949965 -0.01371948 69.10857391 -0.02070236 C72.07913684 -0.02831107 75.04901911 -0.01672238 78.01953125 0 C79.33963951 -0.00910904 79.33963951 -0.00910904 80.68641663 -0.0184021 C86.64275165 0.04379616 86.64275165 0.04379616 89.74981689 1.80307007 C92.55187269 4.76183364 93.19057911 6.72381162 93.56347656 10.82568359 C93.22998765 14.62745721 92.55946317 16.39570095 90.25097656 19.38818359 C86.53308876 21.86677546 83.66173414 21.68086067 79.3581543 21.67529297 C78.55447922 21.68212601 77.75080414 21.68895905 76.92277527 21.69599915 C75.17620582 21.70959319 73.42959649 21.71864259 71.68298149 21.72370911 C68.91164739 21.73200219 66.14064219 21.75251534 63.36940002 21.77624512 C57.47580786 21.8245069 51.58218233 21.85736918 45.68847656 21.88818359 C38.88095549 21.9239387 32.07359276 21.96610821 25.266222 22.02412415 C22.54883263 22.04405396 19.83156736 22.05248712 17.11412048 22.0604248 C1.9924222 21.85801312 1.9924222 21.85801312 -11.74902344 27.38818359 C-12.73902344 27.38818359 -13.72902344 27.38818359 -14.74902344 27.38818359 C-14.74902344 28.04818359 -14.74902344 28.70818359 -14.74902344 29.38818359 C-15.40902344 29.38818359 -16.06902344 29.38818359 -16.74902344 29.38818359 C-16.74902344 30.04818359 -16.74902344 30.70818359 -16.74902344 31.38818359 C-17.40902344 31.38818359 -18.06902344 31.38818359 -18.74902344 31.38818359 C-19.03777344 32.17193359 -19.32652344 32.95568359 -19.62402344 33.76318359 C-20.74902344 36.38818359 -20.74902344 36.38818359 -22.74902344 38.38818359 C-25.67860708 45.60267426 -26.31493472 54.02278342 -23.66308594 61.41552734 C-22.44756212 63.80793115 -21.12747167 66.08775686 -19.74902344 68.38818359 C-19.41902344 69.37818359 -19.08902344 70.36818359 -18.74902344 71.38818359 C-18.08902344 71.38818359 -17.42902344 71.38818359 -16.74902344 71.38818359 C-16.74902344 72.04818359 -16.74902344 72.70818359 -16.74902344 73.38818359 C-15.54246094 73.75943359 -15.54246094 73.75943359 -14.31152344 74.13818359 C-10.74902344 75.38818359 -10.74902344 75.38818359 -8.82623291 76.36877441 C-2.64193399 79.5151248 2.59029625 79.93558821 9.45410156 79.85693359 C10.49491882 79.86398315 11.53573608 79.87103271 12.60809326 79.8782959 C15.90597595 79.90020545 19.20304297 79.89734988 22.50097656 79.88818359 C26.86078883 79.87614341 31.21939542 79.88979589 35.57910156 79.91943359 C36.57500305 79.90811401 37.57090454 79.89679443 38.59698486 79.88513184 C43.002865 79.91732979 45.53453627 79.9487188 49.35546875 82.29248047 C52.72925261 86.02258875 52.57916224 89.02978643 52.54394531 93.90380859 C52.1363553 97.36017194 50.78821154 99.07482229 48.25097656 101.38818359 C45.78566237 102.62084069 44.12255655 102.5349523 41.36499023 102.56518555 C40.34600143 102.57802078 39.32701263 102.59085602 38.27714539 102.6040802 C37.16893936 102.61146713 36.06073334 102.61885406 34.91894531 102.62646484 C33.20485222 102.63857246 33.20485222 102.63857246 31.45613098 102.65092468 C29.02749148 102.66478266 26.59883236 102.67549711 24.17016602 102.68334961 C20.49163469 102.70043667 16.8140318 102.74429324 13.13574219 102.78857422 C-1.58015015 102.886119 -14.06375767 102.64835665 -26.74902344 94.38818359 C-26.74902344 93.72818359 -26.74902344 93.06818359 -26.74902344 92.38818359 C-27.48765625 92.14970703 -28.22628906 91.91123047 -28.98730469 91.66552734 C-32.15840116 90.19883916 -33.68617973 88.60147531 -35.93652344 85.95068359 C-36.61070313 85.16822266 -37.28488281 84.38576172 -37.97949219 83.57958984 C-41.74902344 78.9113624 -41.74902344 78.9113624 -41.74902344 75.38818359 C-42.40902344 75.38818359 -43.06902344 75.38818359 -43.74902344 75.38818359 C-49.5984327 59.8663583 -51.49402144 45.41807597 -44.61230469 29.81005859 C-42.14248329 24.60551382 -39.36174765 19.87967856 -35.74902344 15.38818359 C-35.08902344 15.38818359 -34.42902344 15.38818359 -33.74902344 15.38818359 C-33.74902344 14.72818359 -33.74902344 14.06818359 -33.74902344 13.38818359 C-32.09902344 12.72818359 -30.44902344 12.06818359 -28.74902344 11.38818359 C-28.74902344 10.72818359 -28.74902344 10.06818359 -28.74902344 9.38818359 C-27.08628945 8.44372623 -25.41858999 7.50800948 -23.74902344 6.57568359 C-22.82089844 6.05361328 -21.89277344 5.53154297 -20.93652344 4.99365234 C-13.65952123 1.32839756 -8.07100718 -0.05620887 0 0 Z " fill="#060606" transform="translate(55.7490234375,5.61181640625)"/>
<path d="M0 0 C3.98355132 -0.02493556 7.96707167 -0.04297028 11.95068359 -0.05493164 C13.96323241 -0.06236421 15.97575949 -0.07507829 17.98828125 -0.08789062 C37.46802417 -0.1368347 37.46802417 -0.1368347 43 5 C44.77305788 8.40276214 45.2675087 11.44408205 44.6171875 15.2265625 C43.93903038 17.3701626 43.2358655 19.12130336 42 21 C39.375 22.3125 39.375 22.3125 37 23 C35.58540869 26.13306623 35.58540869 26.13306623 37.546875 29.58203125 C38.27119257 30.99737974 39.00603718 32.40737844 39.75 33.8125 C40.29140625 34.86147461 40.29140625 34.86147461 40.84375 35.93164062 C42.46571053 39.07271999 44.10735262 42.20211744 45.765625 45.32421875 C47 48 47 48 47 51 C43.45865331 52.1804489 40.24554786 52.14618724 36.5625 52.125 C35.24378906 52.12757812 33.92507813 52.13015625 32.56640625 52.1328125 C29.79761546 52.0297031 27.60922886 51.84082567 25 51 C25 50.01 25 49.02 25 48 C25.66 48 26.32 48 27 48 C26.24193832 45.5370486 25.46937097 43.08038849 24.6875 40.625 C24.47416016 39.92632812 24.26082031 39.22765625 24.04101562 38.5078125 C22.60472273 34.00184841 22.60472273 34.00184841 19 31 C19.14100857 33.27113803 19.28796755 35.54190725 19.4375 37.8125 C19.51871094 39.07707031 19.59992188 40.34164062 19.68359375 41.64453125 C19.87184547 44.99181893 19.87184547 44.99181893 21 48 C21.66 48 22.32 48 23 48 C23 48.99 23 49.98 23 51 C19.0465749 52.3006046 15.04899752 52.14720431 10.9375 52.125 C10.21755859 52.12886719 9.49761719 52.13273437 8.75585938 52.13671875 C5.57291361 52.13080799 3.04052138 52.01350713 0 51 C0.48966588 48.79650352 1.03820184 46.92211109 2.03613281 44.88745117 C3.31459018 41.05758407 3.17965534 37.46955071 3.046875 33.48828125 C3.02659241 32.67884567 3.00630981 31.8694101 2.9854126 31.03544617 C2.93998653 29.33167066 2.88924189 27.62802963 2.83349609 25.92456055 C2.74995892 23.31121474 2.68829847 20.69797826 2.62890625 18.08398438 C2.58203433 16.4270459 2.53390117 14.77014252 2.484375 13.11328125 C2.46654968 12.32995926 2.44872437 11.54663727 2.43035889 10.73957825 C2.42114612 6.40525291 2.42114612 6.40525291 0 3 C0 2.01 0 1.02 0 0 Z M20 3 C18.82573736 5.34852528 18.88491827 6.73774065 18.90234375 9.3515625 C18.90556641 10.20234375 18.90878906 11.053125 18.91210938 11.9296875 C18.92048828 12.81914063 18.92886719 13.70859375 18.9375 14.625 C18.94201172 15.5221875 18.94652344 16.419375 18.95117188 17.34375 C18.96297409 19.56256648 18.97943845 21.78125018 19 24 C22.67883222 23.3688278 24.61960933 22.97548833 27 20 C28.99057364 16.01885272 28.36363019 11.28669146 27.1875 7.125 C26.04443152 4.7004767 26.04443152 4.7004767 23 3 C22.01 3 21.02 3 20 3 Z " fill="#0D0D0D" transform="translate(318,29)"/>
<path d="M0 0 C5.61 0 11.22 0 17 0 C17.68707031 2.08441406 18.37414062 4.16882812 19.08203125 6.31640625 C19.75650594 8.35546962 20.4320361 10.39418048 21.10766602 12.43286133 C21.57328689 13.83972343 22.03782582 15.24694414 22.5012207 16.65454102 C23.17108103 18.68863789 23.84494301 20.72137315 24.51953125 22.75390625 C24.92276611 23.97408447 25.32600098 25.1942627 25.74145508 26.45141602 C27.01886764 30.05319907 28.47206442 33.4989237 30 37 C30.59708199 38.71753216 31.1642369 40.44605826 31.6875 42.1875 C31.93886719 43.00605469 32.19023437 43.82460937 32.44921875 44.66796875 C33 47 33 47 33 51 C29.99674904 52.50162548 26.91443758 52.14368999 23.625 52.125 C22.95210938 52.12886719 22.27921875 52.13273437 21.5859375 52.13671875 C18.24719055 52.13014641 15.19146915 52.03109003 12 51 C12 50.01 12 49.02 12 48 C12.66 48 13.32 48 14 48 C13.40895235 43.15340923 12.02055843 39.39251833 10 35 C7.36 35 4.72 35 2 35 C2.44977157 40.30730454 3.03631338 43.49004209 6 48 C6 48.99 6 49.98 6 51 C2.42306178 52.19231274 -0.84182553 52.1461202 -4.5625 52.125 C-5.24763672 52.12886719 -5.93277344 52.13273437 -6.63867188 52.13671875 C-11.7466133 52.12669335 -11.7466133 52.12669335 -14 51 C-13.41196203 47.97580475 -12.77321882 44.98241547 -12 42 C-11.34 42 -10.68 42 -10 42 C-9.88269531 41.30519531 -9.76539063 40.61039063 -9.64453125 39.89453125 C-8.08262266 32.88014178 -5.12567081 25.9897755 -1.8125 19.625 C1.90581485 12.35531505 2.15406912 7.77858295 0 0 Z M3 18 C2.66127487 19.41538717 2.32925376 20.83237963 2 22.25 C1.814375 23.03890625 1.62875 23.8278125 1.4375 24.640625 C0.87845172 27.25556002 0.87845172 27.25556002 1 31 C3.64 31 6.28 31 9 31 C8.52060632 26.28596212 8.03165952 22.33420699 6 18 C5.01 18 4.02 18 3 18 Z " fill="#0E0E0E" transform="translate(276,29)"/>
<path d="M0 0 C1.48831242 0.00667405 2.97660807 0.01863442 4.46484375 0.03515625 C5.22345703 0.03966797 5.98207031 0.04417969 6.76367188 0.04882812 C8.64326246 0.06064945 10.52281274 0.07858547 12.40234375 0.09765625 C15.57613063 6.81973054 18.04411956 13.65789205 20.33984375 20.72265625 C21.03631361 22.84379752 21.73292814 24.9648913 22.4296875 27.0859375 C22.76468262 28.11025879 23.09967773 29.13458008 23.44482422 30.18994141 C24.2919135 32.76231094 25.1550331 35.32806232 26.03125 37.890625 C26.26658447 38.58140137 26.50191895 39.27217773 26.74438477 39.98388672 C27.35754523 41.77900214 27.9735815 43.57313456 28.58984375 45.3671875 C29.40234375 48.09765625 29.40234375 48.09765625 29.40234375 51.09765625 C25.84321146 52.28403368 22.60419875 52.24380971 18.90234375 52.22265625 C18.22558594 52.22652344 17.54882812 52.23039062 16.8515625 52.234375 C13.76160608 52.22828041 11.35555064 52.08205855 8.40234375 51.09765625 C8.07234375 50.10765625 7.74234375 49.11765625 7.40234375 48.09765625 C8.39234375 47.60265625 8.39234375 47.60265625 9.40234375 47.09765625 C8.87754374 40.80857143 8.87754374 40.80857143 6.40234375 35.09765625 C3.76234375 35.09765625 1.12234375 35.09765625 -1.59765625 35.09765625 C-1.14099767 39.66424204 -0.77100058 43.04074683 1.40234375 47.09765625 C1.40234375 48.41765625 1.40234375 49.73765625 1.40234375 51.09765625 C-4.87264822 52.16573999 -11.46662108 53.14133464 -17.59765625 51.09765625 C-17.93465697 46.73269454 -16.87679461 44.00358109 -14.97265625 40.09765625 C-14.42738281 38.95941406 -13.88210937 37.82117188 -13.3203125 36.6484375 C-12.75183594 35.47667969 -12.18335938 34.30492187 -11.59765625 33.09765625 C-9.56304228 28.77959062 -7.5641759 24.44713501 -5.59765625 20.09765625 C-5.06398437 18.95296875 -5.06398437 18.95296875 -4.51953125 17.78515625 C-1.93095039 11.76082261 -2.55442061 7.22736316 -4.59765625 1.09765625 C-3.59765625 0.09765625 -3.59765625 0.09765625 0 0 Z M-0.59765625 18.09765625 C-2.35513239 22.60118887 -2.79060033 26.27405436 -2.59765625 31.09765625 C0.04234375 31.09765625 2.68234375 31.09765625 5.40234375 31.09765625 C5.11752007 29.67959794 4.82416231 28.26325246 4.52734375 26.84765625 C4.36492187 26.05875 4.2025 25.26984375 4.03515625 24.45703125 C3.410843 22.12934481 2.55395833 20.20733673 1.40234375 18.09765625 C0.74234375 18.09765625 0.08234375 18.09765625 -0.59765625 18.09765625 Z " fill="#0F0F0F" transform="translate(175.59765625,28.90234375)"/>
<path d="M0 0 C7.26 0 14.52 0 22 0 C21.67 2.97 21.34 5.94 21 9 C22.02566793 11.92608807 22.9874438 14.26404422 24.4375 16.9375 C28 23.86571429 28 23.86571429 28 26 C28.66 26 29.32 26 30 26 C30.34389403 17.7465434 29.59795547 11.10593118 25 4 C25 3.34 25 2.68 25 2 C24.34 2 23.68 2 23 2 C23 1.34 23 0.68 23 0 C30.26 0 37.52 0 45 0 C44.17814055 4.93115669 43.50015716 7.50100709 41.3125 11.75 C40.77882813 12.79285156 40.24515625 13.83570313 39.6953125 14.91015625 C38.13323413 17.75717005 36.44846726 20.46097823 34.6875 23.1875 C30.27065246 30.42558001 30.41999571 37.8313778 32 46 C32.94476554 48.91509282 32.94476554 48.91509282 34 51 C28.86912946 51.68411607 23.80181009 52.12404355 18.625 52.25 C17.12839844 52.28867188 17.12839844 52.28867188 15.6015625 52.328125 C13 52 13 52 11.1484375 50.484375 C10.76945312 49.99453125 10.39046875 49.5046875 10 49 C10.474375 48.5875 10.94875 48.175 11.4375 47.75 C14.27344262 44.57374426 14.47194465 40.69933353 14.40234375 36.5078125 C13.22352464 29.16022156 9.16654245 22.2691412 5.8203125 15.6796875 C5.45615234 14.96232422 5.09199219 14.24496094 4.71679688 13.50585938 C4.00108242 12.10899986 3.27611546 10.71683402 2.54101562 9.33007812 C0.74701926 5.87147694 0 3.98359969 0 0 Z " fill="#101010" transform="translate(372,29)"/>
<path d="M0 0 C7.59 0 15.18 0 23 0 C23 0.66 23 1.32 23 2 C22.34 2 21.68 2 21 2 C19.79289738 6.79834032 19.7779377 11.54003176 19.68359375 16.45703125 C19.66281265 17.35999435 19.64203156 18.26295746 19.62062073 19.19328308 C19.5554472 22.06628097 19.49639045 24.93936714 19.4375 27.8125 C19.39428414 29.76498294 19.35066888 31.71745708 19.30664062 33.66992188 C19.19979893 38.44652503 19.09844143 43.22321664 19 48 C21.31 47.34 23.62 46.68 26 46 C26 45.34 26 44.68 26 44 C26.66 44 27.32 44 28 44 C28.268125 43.27941406 28.53625 42.55882812 28.8125 41.81640625 C30.0001361 38.99967722 31.39399239 36.53521731 33 33.9375 C34.80537691 31.00827597 36.50962629 28.1025568 38 25 C38.66 25.33 39.32 25.66 40 26 C40 34.25 40 42.5 40 51 C36.91642369 52.54178816 33.67190912 52.14203232 30.2890625 52.1328125 C29.52451752 52.13376923 28.75997253 52.13472595 27.97225952 52.13571167 C26.3532503 52.1363927 24.73423836 52.13454378 23.11523438 52.13037109 C20.64186422 52.12503637 18.16867688 52.13031107 15.6953125 52.13671875 C14.12239543 52.13605767 12.54947848 52.13477588 10.9765625 52.1328125 C9.86856796 52.13584885 9.86856796 52.13584885 8.7381897 52.13894653 C5.35311987 52.12357079 2.23569246 52.05962352 -1 51 C0.5 48 0.5 48 2 45 C2.08711775 41.93757679 2.1154846 38.89813535 2.09765625 35.8359375 C2.0962413 34.92872955 2.09482635 34.02152161 2.09336853 33.08682251 C2.08776096 30.18284845 2.07520718 27.27895085 2.0625 24.375 C2.05748598 22.40885528 2.0529229 20.44270935 2.04882812 18.4765625 C2.03778906 13.6510121 2.02051935 8.82551903 2 4 C1.34 4 0.68 4 0 4 C0 2.68 0 1.36 0 0 Z " fill="#101010" transform="translate(214,29)"/>
<path d="M0 0 C6.27 0 12.54 0 19 0 C19 0.66 19 1.32 19 2 C18.01 2 17.02 2 16 2 C13.3647261 7.10584319 14 9.46743966 14 16 C19.94 16.33 25.88 16.66 32 17 C31.938125 15.081875 31.87625 13.16375 31.8125 11.1875 C31.77769531 10.10855469 31.74289062 9.02960938 31.70703125 7.91796875 C31.29007334 4.78223377 31.29007334 4.78223377 28.44921875 3.23828125 C27.64097656 2.82964844 26.83273437 2.42101562 26 2 C26 1.34 26 0.68 26 0 C32.27 0 38.54 0 45 0 C45 2 45 2 43.5625 3.5 C43.046875 3.995 42.53125 4.49 42 5 C40.59087904 7.81824192 40.88816447 10.17251282 40.90234375 13.3203125 C40.90556641 14.57714844 40.90878906 15.83398438 40.91210938 17.12890625 C40.92048828 18.44761719 40.92886719 19.76632813 40.9375 21.125 C40.94251511 22.46484211 40.94707799 23.804686 40.95117188 25.14453125 C40.96298914 28.42973206 40.97946383 31.71484397 41 35 C42.32 35.66 43.64 36.32 45 37 C45 37.99 45 38.98 45 40 C39.06 40 33.12 40 27 40 C26.67 39.01 26.34 38.02 26 37 C27.65 36.34 29.3 35.68 31 35 C31 31.04 31 27.08 31 23 C27.34706804 22.08676701 24.54255311 21.86591339 20.8125 21.875 C19.74644531 21.87242188 18.68039062 21.86984375 17.58203125 21.8671875 C15.06930652 21.70741028 15.06930652 21.70741028 14 23 C13.90120435 24.810285 13.87028486 26.62452727 13.875 28.4375 C13.87242187 29.42621094 13.86984375 30.41492188 13.8671875 31.43359375 C13.82771585 33.98909076 13.82771585 33.98909076 15 36 C17.02463255 36.65213292 17.02463255 36.65213292 19 37 C19 37.99 19 38.98 19 40 C12.73 40 6.46 40 0 40 C0 39.01 0 38.02 0 37 C1.32 36.34 2.64 35.68 4 35 C4.0990914 30.94335053 4.17157106 26.8871723 4.21972656 22.82958984 C4.23980642 21.4502332 4.26707666 20.07096131 4.30175781 18.69189453 C4.35042817 16.70643021 4.37086418 14.72033746 4.390625 12.734375 C4.41157227 11.54038086 4.43251953 10.34638672 4.45410156 9.11621094 C3.91140327 5.39201682 2.78569036 4.4028817 0 2 C0 1.34 0 0.68 0 0 Z " fill="#161616" transform="translate(259,92)"/>
<path d="M0 0 C0.99 0 1.98 0 3 0 C5.30719364 5.00992921 7.44419824 10.06371345 9.4375 15.20703125 C9.85773438 16.28791016 10.27796875 17.36878906 10.7109375 18.48242188 C11.57689147 20.71946962 12.43617446 22.95911013 13.2890625 25.20117188 C13.70929688 26.27560547 14.12953125 27.35003906 14.5625 28.45703125 C14.93503906 29.42616455 15.30757812 30.39529785 15.69140625 31.39379883 C17.43557301 34.86748916 19.50581502 37.25290751 23 39 C23 39.99 23 40.98 23 42 C17.06 42 11.12 42 5 42 C5 41.01 5 40.02 5 39 C5.99 39 6.98 39 8 39 C7.71125 37.741875 7.4225 36.48375 7.125 35.1875 C6.88136719 34.12595703 6.88136719 34.12595703 6.6328125 33.04296875 C6.01992277 30.72257026 6.01992277 30.72257026 4 28 C1.57478506 27.41810734 1.57478506 27.41810734 -1.125 27.3125 C-2.03507812 27.24675781 -2.94515625 27.18101563 -3.8828125 27.11328125 C-4.58148438 27.07589844 -5.28015625 27.03851563 -6 27 C-6 27.66 -6 28.32 -6 29 C-6.66 29 -7.32 29 -8 29 C-8.66 31.97 -9.32 34.94 -10 38 C-8.35 38.33 -6.7 38.66 -5 39 C-5.33 39.99 -5.66 40.98 -6 42 C-10.29 42 -14.58 42 -19 42 C-19.495 40.515 -19.495 40.515 -20 39 C-19.25492188 38.68289062 -18.50984375 38.36578125 -17.7421875 38.0390625 C-13.85471588 35.14837847 -12.82595606 31.81233399 -11.125 27.375 C-10.78984375 26.5399292 -10.4546875 25.7048584 -10.109375 24.84448242 C-9.41207966 23.10599539 -8.72107159 21.36497437 -8.03613281 19.62158203 C-6.40646228 15.49825446 -4.69867208 11.40774819 -3 7.3125 C-1.99792623 4.87584483 -0.99890644 2.43795603 0 0 Z M-2 14 C-4.29045014 18.81209901 -4.29045014 18.81209901 -5 24 C-2.03 24 0.94 24 4 24 C2.99806563 20.20696275 2.18975773 17.28463659 0 14 C-0.66 14 -1.32 14 -2 14 Z " fill="#191919" transform="translate(180,90)"/>
<path d="M0 0 C12.21 0 24.42 0 37 0 C37.495 4.95 37.495 4.95 38 10 C36.68 9.67 35.36 9.34 34 9 C33.505 7.02 33.505 7.02 33 5 C29.00967159 4.39735687 29.00967159 4.39735687 25 4 C23.67112965 5.10267706 23.67112965 5.10267706 23.88647461 7.86743164 C23.89432983 9.74483032 23.89432983 9.74483032 23.90234375 11.66015625 C23.90446617 12.65685585 23.90446617 12.65685585 23.90663147 13.6736908 C23.91224482 15.80333899 23.92479946 17.93288339 23.9375 20.0625 C23.94251329 21.50325369 23.94707649 22.94400903 23.95117188 24.38476562 C23.96221855 27.92321102 23.97949208 31.46159539 24 35 C25.65 35.66 27.3 36.32 29 37 C29 37.99 29 38.98 29 40 C22.4 40 15.8 40 9 40 C8.505 38.515 8.505 38.515 8 37 C8.804375 36.690625 9.60875 36.38125 10.4375 36.0625 C12.89080405 35.23664655 12.89080405 35.23664655 14 34 C14.10003289 31.86646826 14.13081048 29.72962458 14.1328125 27.59375 C14.13410156 26.29308594 14.13539063 24.99242187 14.13671875 23.65234375 C14.13462402 22.97155762 14.1325293 22.29077148 14.13037109 21.58935547 C14.1250224 19.50871485 14.1303168 17.42829011 14.13671875 15.34765625 C14.13542969 14.04699219 14.13414062 12.74632813 14.1328125 11.40625 C14.13168457 10.20291016 14.13055664 8.99957031 14.12939453 7.75976562 C14.31455977 5.09015518 14.31455977 5.09015518 13 4 C10.12762267 3.41557037 10.12762267 3.41557037 7 4 C4.78831775 6.94236782 4.78831775 6.94236782 3 10 C2.01 10 1.02 10 0 10 C0 6.7 0 3.4 0 0 Z " fill="#121212" transform="translate(209,92)"/>
<path d="M0 0 C5.94 0 11.88 0 18 0 C18 0.66 18 1.32 18 2 C17.34805664 2.55333008 16.69611328 3.10666016 16.02441406 3.67675781 C13.2236237 6.89097888 13.54027662 8.95687389 13.609375 13.171875 C13.61503479 13.8542926 13.62069458 14.53671021 13.62652588 15.23980713 C13.64884364 17.41059762 13.69902492 19.57971206 13.75 21.75 C13.77007124 23.2252365 13.78832093 24.70049899 13.8046875 26.17578125 C13.8486912 29.78439501 13.91768417 33.39203381 14 37 C15.32 37 16.64 37 18 37 C18 37.99 18 38.98 18 40 C12.06 40 6.12 40 0 40 C0 39.01 0 38.02 0 37 C1.98 36.505 1.98 36.505 4 36 C4.02923559 32.14584948 4.04687777 28.29172785 4.0625 24.4375 C4.07087891 23.35146484 4.07925781 22.26542969 4.08789062 21.14648438 C4.68595848 11.62226917 4.68595848 11.62226917 1.4375 3.1875 C0.963125 2.795625 0.48875 2.40375 0 2 C0 1.34 0 0.68 0 0 Z " fill="#1F1F1F" transform="translate(318,92)"/>
<path d="M0 0 C1.65 0.33 3.3 0.66 5 1 C4.01 1.495 4.01 1.495 3 2 C2.30662208 5.0399648 2.30662208 5.0399648 1.875 8.5625 C1.70742188 9.76003906 1.53984375 10.95757812 1.3671875 12.19140625 C1.24601562 13.11824219 1.12484375 14.04507813 1 15 C3.97 15 6.94 15 10 15 C10 15.99 10 16.98 10 18 C6.04 18.495 6.04 18.495 2 19 C2.44977157 24.30730454 3.03631338 27.49004209 6 32 C6 32.99 6 33.98 6 35 C2.42306178 36.19231274 -0.84182553 36.1461202 -4.5625 36.125 C-5.24763672 36.12886719 -5.93277344 36.13273437 -6.63867188 36.13671875 C-11.7466133 36.12669335 -11.7466133 36.12669335 -14 35 C-13.41196203 31.97580475 -12.77321882 28.98241547 -12 26 C-11.34 26 -10.68 26 -10 26 C-9.88269531 25.30519531 -9.76539063 24.61039063 -9.64453125 23.89453125 C-7.78480737 15.54268038 -3.98875758 7.53431987 0 0 Z " fill="#161616" transform="translate(276,45)"/>
<path d="M0 0 C0.33 0.66 0.66 1.32 1 2 C1.99 1.67 2.98 1.34 4 1 C3.01 5.95 2.02 10.9 1 16 C3.64 16 6.28 16 9 16 C9.33 16.99 9.66 17.98 10 19 C6.04 19.495 6.04 19.495 2 20 C2.45665858 24.56658579 2.82665567 27.94309058 5 32 C5 33.32 5 34.64 5 36 C-1.27499197 37.06808374 -7.86896483 38.04367839 -14 36 C-14.33700072 31.63503829 -13.27913836 28.90592484 -11.375 25 C-10.55902344 23.2984375 -10.55902344 23.2984375 -9.7265625 21.5625 C-9.15679687 20.386875 -8.58703125 19.21125 -8 18 C-6.91126314 15.66918306 -5.82771486 13.3359337 -4.75 11 C-4.27046875 9.96875 -3.7909375 8.9375 -3.296875 7.875 C-2.12355597 5.27390721 -1.03595822 2.65830788 0 0 Z " fill="#151515" transform="translate(172,44)"/>
<path d="M0 0 C7.26 0 14.52 0 22 0 C21.17147125 4.97117252 20.47209598 7.53439254 18.25 11.8125 C17.71632813 12.84503906 17.18265625 13.87757812 16.6328125 14.94140625 C14.47163601 18.98973445 12.27467652 23.01428361 10 27 C9.67 26.34 9.34 25.68 9 25 C8.34 25 7.68 25 7 25 C7.04125 23.845 7.0825 22.69 7.125 21.5 C7.11336997 14.92903359 5.60071362 9.56473923 2 4 C2 3.34 2 2.68 2 2 C1.34 2 0.68 2 0 2 C0 1.34 0 0.68 0 0 Z " fill="#1D1D1D" transform="translate(395,29)"/>
<path d="M0 0 C0.66 0.33 1.32 0.66 2 1 C2 9.25 2 17.5 2 26 C-4.02431436 29.01215718 -13.50106305 26.99983645 -20 26 C-19.505 24.515 -19.505 24.515 -19 23 C-15.4375 21.8125 -15.4375 21.8125 -12 21 C-12 20.34 -12 19.68 -12 19 C-11.34 19 -10.68 19 -10 19 C-9.731875 18.27941406 -9.46375 17.55882813 -9.1875 16.81640625 C-7.9998639 13.99967722 -6.60600761 11.53521731 -5 8.9375 C-3.19462309 6.00827597 -1.49037371 3.1025568 0 0 Z " fill="#1A1A1A" transform="translate(252,54)"/>
<path d="M0 0 C1.6875 1.4375 1.6875 1.4375 3 4 C2.34016877 7.19468287 1.21205792 9.94740969 0 13 C3.3 12.67 6.6 12.34 10 12 C10 12.66 10 13.32 10 14 C8 16 8 16 5.8359375 16.1953125 C5.02382812 16.17210938 4.21171875 16.14890625 3.375 16.125 C2.55773437 16.10695313 1.74046875 16.08890625 0.8984375 16.0703125 C0.27195313 16.04710938 -0.35453125 16.02390625 -1 16 C-1 16.66 -1 17.32 -1 18 C-1.66 18 -2.32 18 -3 18 C-3.66 20.97 -4.32 23.94 -5 27 C-3.35 27.33 -1.7 27.66 0 28 C-0.33 28.99 -0.66 29.98 -1 31 C-5.29 31 -9.58 31 -14 31 C-14.33 30.01 -14.66 29.02 -15 28 C-14.26136719 27.69707031 -13.52273437 27.39414063 -12.76171875 27.08203125 C-8.73105624 24.0433564 -7.60084488 20.30651942 -5.8125 15.6875 C-5.47025391 14.84509766 -5.12800781 14.00269531 -4.77539062 13.13476562 C-3.03094695 8.80244822 -1.41634977 4.4524226 0 0 Z " fill="#242424" transform="translate(175,101)"/>
<path d="M0 0 C1.21519569 -0.00021904 1.21519569 -0.00021904 2.4549408 -0.0004425 C5.12786554 0.00025315 7.80072027 0.00802934 10.47363281 0.01586914 C12.328796 0.01773455 14.18395968 0.01915787 16.03912354 0.02015686 C20.91845056 0.02397234 25.79774774 0.03379437 30.67706299 0.04486084 C35.65742591 0.05509578 40.63779365 0.05965895 45.61816406 0.06469727 C55.38770841 0.07541749 65.15723063 0.0924823 74.92675781 0.11352539 C74.92675781 0.44352539 74.92675781 0.77352539 74.92675781 1.11352539 C73.40245903 1.12232475 73.40245903 1.12232475 71.84736633 1.13130188 C62.26855857 1.18852591 52.68997789 1.2612859 43.11140156 1.3492403 C38.18699595 1.39395932 33.26267337 1.43321212 28.33813477 1.45996094 C23.58527377 1.48597856 18.83273201 1.52637015 14.08006859 1.57671165 C12.26724405 1.59339078 10.45436429 1.60489855 8.64147377 1.6111393 C6.10121861 1.62076904 3.56178209 1.64881431 1.02172852 1.68115234 C0.27294434 1.67971725 -0.47583984 1.67828217 -1.24731445 1.67680359 C-5.70842494 1.75707244 -8.47660984 2.46132506 -12.07324219 5.11352539 C-12.65074219 5.52602539 -13.22824219 5.93852539 -13.82324219 6.36352539 C-15.75250261 9.06448998 -15.76746431 11.87227994 -16.07324219 15.11352539 C-16.40324219 15.11352539 -16.73324219 15.11352539 -17.07324219 15.11352539 C-17.43990885 7.78019206 -17.43990885 7.78019206 -15.69824219 4.61352539 C-14.07324219 3.11352539 -14.07324219 3.11352539 -12.07324219 3.11352539 C-12.07324219 2.45352539 -12.07324219 1.79352539 -12.07324219 1.11352539 C-8.11474867 -0.19122968 -4.11654196 -0.01942959 0 0 Z " fill="#909090" transform="translate(24.0732421875,125.886474609375)"/>
<path d="M0 0 C4.02992782 0.55312735 8.02022924 1.1558062 12 2 C12 2.33 12 2.66 12 3 C10.6078125 3.3403125 10.6078125 3.3403125 9.1875 3.6875 C5.43614589 5.23217522 4.90169594 6.55883593 3 10 C2.01 10 1.02 10 0 10 C0 6.7 0 3.4 0 0 Z " fill="#242424" transform="translate(209,92)"/>
<path d="M0 0 C0.33 0.66 0.66 1.32 1 2 C1.99 1.67 2.98 1.34 4 1 C3.60246179 2.46366342 3.18118616 3.9208935 2.75 5.375 C2.51796875 6.18710937 2.2859375 6.99921875 2.046875 7.8359375 C0.75827516 10.49968494 -0.32443787 10.89036764 -3 12 C-3.66 12.66 -4.32 13.32 -5 14 C-4.34580901 8.93001981 -2.1453591 4.58009223 0 0 Z " fill="#3F3F3F" transform="translate(172,44)"/>
<path d="M0 0 C1.65 0.33 3.3 0.66 5 1 C4.01 1.495 4.01 1.495 3 2 C2.53348793 4.12576782 2.53348793 4.12576782 2.375 6.5625 C2.30023438 7.38878906 2.22546875 8.21507812 2.1484375 9.06640625 C2.09945313 9.70449219 2.05046875 10.34257813 2 11 C1.67 11 1.34 11 1 11 C0.67 9.35 0.34 7.7 0 6 C-0.99 6.66 -1.98 7.32 -3 8 C-1.125 2.25 -1.125 2.25 0 0 Z " fill="#484848" transform="translate(276,45)"/>
<path d="M0 0 C1.65 0.33 3.3 0.66 5 1 C4.67 1.99 4.34 2.98 4 4 C-0.29 4 -4.58 4 -9 4 C-9 3.67 -9 3.34 -9 3 C-6.36 3 -3.72 3 -1 3 C-0.67 2.01 -0.34 1.02 0 0 Z " fill="#484848" transform="translate(170,128)"/>
<path d="M0 0 C6.27 0 12.54 0 19 0 C18.67 0.66 18.34 1.32 18 2 C17.09636719 1.98839844 16.19273437 1.97679688 15.26171875 1.96484375 C13.49248047 1.95130859 13.49248047 1.95130859 11.6875 1.9375 C10.51574219 1.92589844 9.34398437 1.91429688 8.13671875 1.90234375 C4.96940805 1.85100102 4.96940805 1.85100102 2 3 C1.34 2.67 0.68 2.34 0 2 C0 1.34 0 0.68 0 0 Z " fill="#2B2B2B" transform="translate(285,92)"/>
<path d="M0 0 C1.65 0 3.3 0 5 0 C3.8553125 0.8971875 3.8553125 0.8971875 2.6875 1.8125 C1.800625 2.534375 0.91375 3.25625 0 4 C-0.5775 4.433125 -1.155 4.86625 -1.75 5.3125 C-3.71433193 7.96434811 -3.6966242 10.78421655 -4 14 C-4.33 14 -4.66 14 -5 14 C-5.36666667 6.66666667 -5.36666667 6.66666667 -3.625 3.5 C-2 2 -2 2 0 2 C0 1.34 0 0.68 0 0 Z " fill="#5F5F5F" transform="translate(12,127)"/>
<path d="M0 0 C0.99 1.32 1.98 2.64 3 4 C2.34 5.32 1.68 6.64 1 8 C0.01 8 -0.98 8 -2 8 C-1.34 5.36 -0.68 2.72 0 0 Z " fill="#454545" transform="translate(175,101)"/>
</svg>
